<svg width="27" height="27" viewBox="0 0 27 27" fill="none" xmlns="http://www.w3.org/2000/svg">
<path d="M2.67968 25.0896C2.89197 25.0896 3.10598 24.9989 3.20487 24.8015C3.36542 24.4811 3.15095 24.0931 2.68338 23.858C2.35611 23.6934 1.81656 23.601 1.6151 24.0032C1.45455 24.3236 1.66902 24.7116 2.13659 24.9467C2.32374 25.0409 2.51221 25.0896 2.67968 25.0896Z" fill="black"/>
<path d="M7.11523 23.858C6.59161 23.858 6.22591 24.1085 6.22591 24.4672C6.22591 24.8259 6.59161 25.0764 7.11523 25.0764C7.63885 25.0764 8.00455 24.8259 8.00455 24.4672C8.0046 24.1085 7.6389 23.858 7.11523 23.858Z" fill="black"/>
<path d="M26.0976 11.741C26.0976 8.75491 23.6719 6.32554 20.6904 6.32554C20.2948 6.32554 19.9067 6.36793 19.5283 6.45113L19.9413 5.98159C20.4337 5.4217 20.7049 4.70239 20.7049 3.95626V3.18844C20.7049 2.70786 20.3143 2.31687 19.8342 2.31687H19.5883V1.75527C19.5883 1.02594 18.995 0.432617 18.2657 0.432617H14.1168C13.3875 0.432617 12.7942 1.02594 12.7942 1.75527V2.31692H12.6989C12.2188 2.31692 11.8282 2.70792 11.8282 3.18849V3.95631C11.8282 4.70239 12.0994 5.42165 12.5919 5.98164L13.4937 7.00702C13.6502 7.18502 13.7364 7.41359 13.7364 7.65426C13.7364 7.86422 13.9066 8.03261 14.1165 8.03261C14.3265 8.03261 14.4966 7.86073 14.4966 7.65077C14.4966 7.22867 14.3432 6.82174 14.0646 6.5049L13.1627 5.47952C12.7924 5.05838 12.5885 4.51741 12.5885 3.95621V3.18839C12.5885 3.12698 12.638 3.07701 12.699 3.07701H19.8343C19.8952 3.07701 19.9448 3.12693 19.9448 3.18839V3.95621C19.9448 4.51746 19.7409 5.05843 19.3706 5.47952L18.4687 6.5049C18.1901 6.82164 18.0367 7.22862 18.0367 7.65421C18.0367 9.01657 18.4207 10.3468 19.1242 11.5H13.411C13.8242 10.8237 14.1284 10.0845 14.3089 9.30215C14.356 9.0976 14.2285 8.89355 14.0239 8.84631C13.8194 8.79912 13.6153 8.92673 13.5681 9.13128C13.2614 10.4612 12.5594 11.6549 11.538 12.5836C10.028 13.9566 8.23463 16.2566 8.16964 19.4616C7.94971 19.3561 7.71365 19.2852 7.47227 19.2505C7.45462 18.657 7.52037 17.2992 8.35694 16.142L8.52102 15.9297C8.64798 15.7655 8.61961 15.5297 8.45729 15.4001C8.29498 15.2706 8.05881 15.2953 7.92685 15.4557C7.86347 15.5327 7.80343 15.6104 7.74637 15.6889L6.3435 17.5042C6.26591 16.8056 6.03445 15.9282 5.40668 15.2994C4.22278 14.1135 2.15598 14.3385 2.06847 14.3486C1.89326 14.369 1.75507 14.5073 1.73478 14.6825C1.72462 14.77 1.50014 16.8396 2.68369 18.0251C3.40908 18.7517 4.46552 18.9485 5.19546 18.9897L4.66713 19.6733C3.50275 19.142 2.20737 19.5703 1.26418 20.8076C1.13691 20.9745 1.16908 21.213 1.33605 21.3403C1.50302 21.4676 1.74156 21.4354 1.86877 21.2684C2.60089 20.3079 3.57741 19.9736 4.41757 20.396C5.46774 20.9241 5.67057 22.2821 4.92227 23.7751C4.481 24.6556 3.87498 25.2609 3.21575 25.4795C2.77529 25.6255 2.32613 25.5939 1.91668 25.3881C0.985018 24.9196 0.708288 23.8155 1.19437 22.5068C1.26746 22.31 1.16721 22.0912 0.970451 22.0181C0.773689 21.945 0.554875 22.0452 0.481785 22.2421C-0.140972 23.9186 0.288159 25.4201 1.57515 26.0672C2.16048 26.3616 2.83356 26.4072 3.45495 26.2011C4.02212 26.013 4.53623 25.6368 4.97563 25.0968C5.46581 25.8795 6.23141 26.3302 7.11547 26.3302C7.88517 26.3302 8.57995 25.986 9.07175 25.361C9.33761 25.0231 9.53639 24.6132 9.66533 24.1469C9.97291 24.6108 10.3267 25.0731 10.7239 25.5293C11.1673 26.0384 11.81 26.3303 12.4872 26.3303H20.0459C20.7232 26.3303 21.3659 26.0384 21.8092 25.5293C23.0404 24.1155 23.837 22.6719 24.1765 21.2385C24.2249 21.0342 24.0986 20.8294 23.8943 20.781C23.69 20.7328 23.4852 20.859 23.4368 21.0633C23.1259 22.3755 22.3855 23.7101 21.2359 25.03C20.937 25.3732 20.5033 25.5701 20.0459 25.5701H12.4872C12.0298 25.5701 11.5961 25.3732 11.2971 25.03C10.7011 24.3457 10.2104 23.6498 9.83669 22.96C9.84241 22.7702 9.83958 22.5801 9.82718 22.3905C9.76947 21.5062 9.51125 20.7524 9.07165 20.1937C9.02997 20.1407 8.98592 20.0897 8.94049 20.0398C8.93134 19.9049 8.92669 19.7712 8.92669 19.6407C8.92669 16.6197 10.6249 14.4415 12.0495 13.1461C12.352 12.8711 12.6284 12.5746 12.879 12.2603H19.6553C19.9054 12.5751 20.1818 12.8718 20.4836 13.1461C21.9082 14.4415 23.6064 16.6197 23.6064 19.6407C23.6064 19.8507 23.7765 20.0208 23.9865 20.0208C24.1965 20.0208 24.3666 19.8507 24.3666 19.6407C24.3666 18.373 24.0953 17.2445 23.6745 16.2555C25.1772 15.257 26.0976 13.5576 26.0976 11.741ZM13.5544 1.75527C13.5544 1.44515 13.8067 1.19285 14.1168 1.19285H18.2656C18.5757 1.19285 18.828 1.44515 18.828 1.75527V2.31692H13.5544V1.75527ZM6.77061 18.1946C6.71047 18.6266 6.70339 18.9981 6.71092 19.2587C6.26515 19.3328 5.85362 19.5283 5.50709 19.8294L6.77061 18.1946ZM3.22157 17.4881C2.53589 16.8013 2.46422 15.6429 2.47337 15.0866C3.02764 15.0762 4.18034 15.1472 4.86855 15.8365C5.55423 16.5234 5.6259 17.6817 5.61675 18.238C5.06288 18.2489 3.90988 18.1774 3.22157 17.4881ZM9.07939 22.7773C9.07939 24.4478 8.29012 25.5701 7.11537 25.5701C6.39206 25.5701 5.79525 25.1413 5.4563 24.3868C5.50608 24.2988 5.55494 24.2092 5.60173 24.1158C6.07279 23.1759 6.23566 22.2581 6.07269 21.4618C6.01245 21.1674 5.9083 20.8959 5.76505 20.6533C6.11108 20.2201 6.58295 19.9845 7.11532 19.9845C8.29012 19.9846 9.07939 21.1069 9.07939 22.7773ZM20.995 12.5837C20.1003 11.7702 19.4505 10.7406 19.0985 9.6154C19.556 9.27064 20.1129 9.08288 20.6904 9.08288C22.1533 9.08288 23.3435 10.2753 23.3435 11.741C23.3435 12.6012 22.9272 13.4013 22.2394 13.8973C21.8302 13.3925 21.4023 12.9541 20.995 12.5837ZM23.3438 15.5606C23.1455 15.1851 22.9274 14.833 22.6973 14.5042C23.5738 13.8656 24.1038 12.8415 24.1038 11.741C24.1038 9.85611 22.5726 8.32264 20.6904 8.32264C20.0544 8.32264 19.4378 8.49952 18.904 8.82856C18.8334 8.44201 18.7968 8.04804 18.7968 7.65082C18.7968 7.59427 18.802 7.53833 18.8116 7.48335C19.4044 7.21967 20.0355 7.08578 20.6904 7.08578C23.2528 7.08578 25.3374 9.17413 25.3374 11.741C25.3374 13.2661 24.5825 14.6949 23.3438 15.5606Z" fill="black"/>
</svg>
